<svg width="779.71" height="437.28" xmlns="http://www.w3.org/2000/svg">

 <g>
  <title>Layer 1</title>
  <g id="svg_1">
   <path stroke="#ffffff" id="svg_2" fill="#ffffff" d="m729.19,299.17c-9.74,45.32 -28.92,88.57 -56.86,127.6c-1.88,2.62 -1.27,6.26 1.35,8.14c1.03,0.74 2.22,1.09 3.39,1.09c1.82,0 3.61,-0.85 4.75,-2.44c29.39,-41.04 49.4,-86.63 59.3,-134.39l-11.92,0l-0.01,0z" class="cls-1"/>
   <path stroke="#ffffff" id="svg_3" fill="#ffffff" d="m47.24,299.71c9.74,45.32 28.92,88.57 56.86,127.6c1.88,2.62 1.27,6.26 -1.35,8.14c-1.03,0.74 -2.22,1.09 -3.39,1.09c-1.82,0 -3.61,-0.85 -4.75,-2.44c-29.39,-41.04 -49.4,-86.63 -59.3,-134.39l11.92,0l0.01,0z" class="cls-1"/>
   <path stroke="#ffffff" id="svg_4" fill="#ffffff" d="m738.78,204.4l11.69,0c-4.6,-64.12 -27.03,-125.76 -65.57,-179.59c-1.88,-2.62 -5.52,-3.22 -8.14,-1.35c-2.62,1.88 -3.22,5.52 -1.35,8.14c37.11,51.83 58.78,111.12 63.36,172.8l0.01,0z" class="cls-1"/>
   <path stroke="#ffffff" id="svg_5" fill="#587096" d="m642.96,186.06c0,1 -0.23,2.02 -0.68,2.98c-0.2,0.39 -0.43,0.77 -0.7,1.12c-0.74,1 -1.73,1.75 -2.82,2.2c-0.58,0.24 -1.18,0.39 -1.82,0.47c-0.32,0.05 -0.62,0.05 -0.93,0.05l-94.37,0c-2.78,0 -5.28,-1.67 -6.33,-4.24l-5.83,-14.26c-0.58,-1.43 -1.75,-1.82 -2.4,-1.94c-0.64,-0.12 -1.88,-0.15 -2.93,0.97l-15.97,17.28c-1.82,1.96 -4.6,2.69 -7.15,1.85c-2.54,-0.84 -4.36,-3.07 -4.66,-5.71l-8.64,-75.25l-106.18,80.39c-1.25,0.94 -2.69,1.38 -4.13,1.38c-2.07,0 -4.1,-0.93 -5.45,-2.7c-0.93,-1.23 -1.38,-2.69 -1.38,-4.11c0,-2.07 0.94,-4.12 2.7,-5.45l115.71,-87.6c0.08,-0.06 0.15,-0.11 0.21,-0.17l0.02,0c0.7,-0.49 1.46,-0.84 2.26,-1.03c0,0 0,-0.02 0.02,-0.02l0.03,0c0.41,-0.11 0.84,-0.17 1.26,-0.18l0.03,0s0,-0.02 0.02,-0.02l0.27,0c1.25,0 2.48,0.32 3.58,0.99c0,0 0.02,0 0.02,0.02l142.99,87.14l0.02,0.02l0.02,0c1.49,0.91 2.49,2.31 2.96,3.86c0.14,0.47 0.23,0.97 0.27,1.46l0,0.02c0.02,0.17 0.02,0.33 0.02,0.5l-0.04,-0.02z" class="cls-1"/>
   <path stroke="#ffffff" id="svg_6" fill="#587096" d="m462.2,95.71c0.06,2.2 -0.96,4.28 -2.72,5.62l-119.91,90.18c-1.18,0.9 -2.63,1.37 -4.1,1.37l-42.52,0c-3.05,0 -5.72,-2.02 -6.57,-4.95c-0.84,-2.93 0.36,-6.06 2.95,-7.67l117.85,-73.64c0.12,-0.09 0.26,-0.17 0.39,-0.23c0.41,-0.23 1.49,-0.8 0.9,-2.38c-0.53,-1.44 -1.56,-1.35 -2.08,-1.25l-43.44,9.54c-2.79,0.74 -5.75,-0.33 -7.39,-2.7c-1.64,-2.37 -1.62,-5.53 0.06,-7.87l27.27,-39.34l-64.78,48.57c-2.17,1.64 -5.1,1.82 -7.47,0.49l-19.95,-11.31l-65.55,55.33c-1.67,1.41 -1.9,3.93 -0.49,5.6l17.3,20.59c1.7,2.03 2.08,4.87 0.96,7.29c-1.12,2.4 -3.54,3.93 -6.2,3.93l-94.07,0c-3.04,0 -5.71,-1.99 -6.56,-4.9c-0.85,-2.92 0.32,-6.04 2.87,-7.68l147.27,-94.2c1.14,-0.73 2.41,-1.08 3.67,-1.08c0.29,0 0.58,0.02 0.87,0.06c0.27,0.03 0.55,0.09 0.82,0.15c0.08,0.02 0.14,0.03 0.21,0.08c0.18,0.05 0.38,0.11 0.56,0.18c0.08,0.02 0.15,0.05 0.24,0.09c0.21,0.09 0.43,0.2 0.64,0.32c0.14,0.06 0.26,0.14 0.39,0.23l19.86,11.24l70.53,-52.9c2.32,-1.75 5.48,-1.82 7.9,-0.21l67.27,45.02c2.11,1.41 3.19,3.81 3.01,6.16l0,0.05c0.02,0.08 0.02,0.17 0.02,0.24l-0.01,-0.02z" class="cls-1"/>
   <path stroke="#ffffff" id="svg_7" fill="#ffffff" d="m43.82,204.94l-11.69,0c4.6,-64.12 27.03,-125.76 65.57,-179.59c1.88,-2.62 5.52,-3.22 8.14,-1.35c2.62,1.88 3.22,5.52 1.35,8.14c-37.11,51.83 -58.78,111.12 -63.36,172.8l-0.01,0z" class="cls-1"/>
   <g id="svg_8">
    <path stroke="#ffffff" id="svg_9" fill="#ffffff" d="m117.77,235.73c3.22,1.84 5.76,4.39 7.62,7.65c1.86,3.26 2.79,6.95 2.79,11.05s-0.94,7.81 -2.82,11.09c-1.88,3.28 -4.43,5.84 -7.65,7.68c-3.22,1.84 -6.79,2.76 -10.7,2.76s-7.48,-0.92 -10.7,-2.76c-3.22,-1.84 -5.77,-4.4 -7.65,-7.68c-1.88,-3.28 -2.82,-6.97 -2.82,-11.09s0.94,-7.79 2.82,-11.05c1.88,-3.26 4.43,-5.81 7.65,-7.65c3.22,-1.84 6.79,-2.76 10.7,-2.76s7.54,0.92 10.76,2.76zm-18.67,9.9c-1.96,2.15 -2.93,5.09 -2.93,8.8s0.98,6.6 2.93,8.77c1.96,2.17 4.59,3.26 7.91,3.26s5.91,-1.09 7.88,-3.26c1.98,-2.17 2.96,-5.1 2.96,-8.77s-0.98,-6.6 -2.93,-8.77c-1.96,-2.17 -4.59,-3.26 -7.91,-3.26s-5.96,1.08 -7.91,3.23z" class="cls-1"/>
    <path stroke="#ffffff" id="svg_10" fill="#ffffff" d="m166.29,275.53l-9.07,-15.83l-2.31,0l0,15.83l-10.14,0l0,-41.91l17.31,0c3.32,0 6.12,0.57 8.42,1.72c2.29,1.15 4.01,2.72 5.16,4.71c1.15,2 1.72,4.28 1.72,6.85c0,3.04 -0.84,5.63 -2.52,7.77c-1.68,2.13 -4.12,3.6 -7.32,4.39l9.96,16.48l-11.2,0l-0.01,-0.01zm-11.38,-22.76l6.28,0c2.01,0 3.5,-0.44 4.45,-1.33c0.95,-0.89 1.42,-2.2 1.42,-3.94s-0.48,-2.96 -1.45,-3.91c-0.97,-0.95 -2.44,-1.42 -4.42,-1.42l-6.28,0l0,10.61l0,-0.01z" class="cls-1"/>
    <path stroke="#ffffff" id="svg_11" fill="#ffffff" d="m200.44,267.77l13.52,0l0,7.77l-23.65,0l0,-41.91l10.14,0l0,34.14l-0.01,0z" class="cls-1"/>
    <path stroke="#ffffff" id="svg_12" fill="#ffffff" d="m236.6,233.62l0,41.91l-10.14,0l0,-41.91l10.14,0z" class="cls-1"/>
    <path stroke="#ffffff" id="svg_13" fill="#ffffff" d="m283.81,237.42c3.5,2.81 5.76,6.6 6.79,11.38l-10.73,0c-0.79,-1.94 -2.01,-3.46 -3.65,-4.56c-1.64,-1.11 -3.59,-1.66 -5.84,-1.66c-2.96,0 -5.36,1.09 -7.17,3.26c-1.82,2.17 -2.73,5.08 -2.73,8.71s0.91,6.53 2.73,8.68c1.82,2.15 4.21,3.23 7.17,3.23c2.25,0 4.2,-0.55 5.84,-1.66c1.64,-1.11 2.85,-2.61 3.65,-4.51l10.73,0c-1.03,4.74 -3.29,8.53 -6.79,11.35c-3.5,2.83 -7.91,4.24 -13.25,4.24c-4.07,0 -7.65,-0.9 -10.73,-2.7c-3.08,-1.8 -5.46,-4.32 -7.14,-7.56c-1.68,-3.24 -2.52,-6.94 -2.52,-11.09s0.84,-7.84 2.52,-11.08c1.68,-3.24 4.06,-5.76 7.14,-7.56c3.08,-1.8 6.66,-2.7 10.73,-2.7c5.34,0 9.75,1.4 13.25,4.21l0,0.02z" class="cls-1"/>
    <path stroke="#ffffff" id="svg_14" fill="#ffffff" d="m323.85,254.13l16.89,21.4l-12.27,0l-14.23,-18.79l0,18.79l-10.14,0l0,-41.91l10.14,0l0,18.44l14.34,-18.44l12.15,0l-16.89,20.51l0.01,0z" class="cls-1"/>
    <path stroke="#ffffff" id="svg_15" fill="#ffffff" d="m362.97,241.69l0,8.77l14.17,0l0,7.65l-14.17,0l0,9.31l15.94,0l0,8.12l-26.08,0l0,-41.91l26.08,0l0,8.06l-15.94,0zm11.44,-16.54l-14.29,6.11l0,-6.88l14.29,-6.88l0,7.65z" class="cls-1"/>
    <path stroke="#ffffff" id="svg_16" fill="#ffffff" d="m442.34,267.35l18.49,0l0,8.18l-29.76,0l0,-7.71l18.2,-26.08l-17.96,0l0,-8.12l29.4,0l0,7.71l-18.38,26.02l0.01,0z" class="cls-1"/>
    <path stroke="#ffffff" id="svg_17" fill="#ffffff" d="m500.85,267.89l-15.71,0l-2.61,7.65l-10.67,0l15.35,-41.61l11.68,0l15.35,41.61l-10.79,0l-2.61,-7.65l0.01,0zm0.71,-42.74l-14.29,6.11l0,-6.88l14.29,-6.88l0,7.65zm-3.32,35.03l-5.22,-15.41l-5.28,15.41l10.49,0l0.01,0z" class="cls-1"/>
    <path stroke="#ffffff" id="svg_18" fill="#ffffff" d="m562.2,233.62l0,41.91l-10.2,0l0,-17.49l-15.89,0l0,17.49l-10.14,0l0,-41.91l10.14,0l0,16.24l15.89,0l0,-16.24l10.2,0z" class="cls-1"/>
    <path stroke="#ffffff" id="svg_19" fill="#ffffff" d="m607.7,235.73c3.22,1.84 5.76,4.39 7.62,7.65c1.86,3.26 2.79,6.95 2.79,11.05s-0.94,7.81 -2.82,11.09c-1.88,3.28 -4.43,5.84 -7.65,7.68c-3.22,1.84 -6.79,2.76 -10.7,2.76s-7.48,-0.92 -10.7,-2.76c-3.22,-1.84 -5.77,-4.4 -7.65,-7.68c-1.88,-3.28 -2.82,-6.97 -2.82,-11.09s0.94,-7.79 2.82,-11.05c1.88,-3.26 4.43,-5.81 7.65,-7.65c3.22,-1.84 6.79,-2.76 10.7,-2.76s7.54,0.92 10.76,2.76zm-18.67,9.9c-1.96,2.15 -2.93,5.09 -2.93,8.8s0.98,6.6 2.93,8.77c1.96,2.17 4.59,3.26 7.91,3.26s5.91,-1.09 7.88,-3.26c1.98,-2.17 2.96,-5.1 2.96,-8.77s-0.98,-6.6 -2.93,-8.77c-1.96,-2.17 -4.59,-3.26 -7.91,-3.26s-5.96,1.08 -7.91,3.23z" class="cls-1"/>
    <path stroke="#ffffff" id="svg_20" fill="#ffffff" d="m653.13,275.53l-9.07,-15.83l-2.31,0l0,15.83l-10.14,0l0,-41.91l17.31,0c3.32,0 6.12,0.57 8.42,1.72c2.29,1.15 4.01,2.72 5.16,4.71c1.15,2 1.72,4.28 1.72,6.85c0,3.04 -0.84,5.63 -2.52,7.77c-1.68,2.13 -4.12,3.6 -7.32,4.39l9.96,16.48l-11.2,0l-0.01,-0.01zm4.09,-49.26l-9.19,4.98l-9.19,-4.98l0,-6.7l9.19,5.1l9.19,-5.1l0,6.7zm-15.47,26.5l6.28,0c2.02,0 3.5,-0.44 4.45,-1.33c0.95,-0.89 1.42,-2.2 1.42,-3.94s-0.48,-2.96 -1.45,-3.91c-0.97,-0.95 -2.44,-1.42 -4.42,-1.42l-6.28,0l0,10.61l0,-0.01z" class="cls-1"/>
    <path stroke="#ffffff" id="svg_21" fill="#ffffff" d="m690.77,225.15l-14.29,6.11l0,-6.88l14.29,-6.88l0,7.65zm-3.5,8.48l0,41.91l-10.14,0l0,-41.91l10.14,0z" class="cls-1"/>
   </g>
   <path stroke="#ffffff" id="svg_22" fill="#ffffff" d="m643,186.06c0,1 -0.23,2.02 -0.68,2.98c-0.2,0.39 -0.43,0.77 -0.7,1.12c-0.74,1 -1.73,1.75 -2.82,2.2c-0.58,0.24 -1.18,0.39 -1.82,0.47c-0.32,0.05 -0.62,0.05 -0.93,0.05l-94.37,0c-2.78,0 -5.28,-1.67 -6.33,-4.24l-5.83,-14.26c-0.58,-1.43 -1.75,-1.82 -2.4,-1.94c-0.64,-0.12 -1.88,-0.15 -2.93,0.97l-15.97,17.28c-1.82,1.96 -4.6,2.69 -7.15,1.85c-2.54,-0.84 -4.36,-3.07 -4.66,-5.71l-8.64,-75.25l-106.18,80.39c-1.25,0.94 -2.69,1.38 -4.13,1.38c-2.07,0 -4.1,-0.93 -5.45,-2.7c-0.93,-1.23 -1.38,-2.69 -1.38,-4.11c0,-2.07 0.94,-4.12 2.7,-5.45l115.71,-87.6c0.08,-0.06 0.15,-0.11 0.21,-0.17l0.02,0c0.7,-0.49 1.46,-0.84 2.26,-1.03c0,0 0,-0.02 0.02,-0.02l0.03,0c0.41,-0.11 0.84,-0.17 1.26,-0.18l0.03,0s0,-0.02 0.02,-0.02l0.27,0c1.25,0 2.48,0.32 3.58,0.99c0,0 0.02,0 0.02,0.02l142.99,87.14l0.02,0.02l0.02,0c1.49,0.91 2.49,2.31 2.96,3.86c0.14,0.47 0.23,0.97 0.27,1.46l0,0.02c0.02,0.17 0.02,0.33 0.02,0.5l-0.04,-0.02z" class="cls-1"/>
   <path stroke="#ffffff" id="svg_23" fill="#ffffff" d="m462.24,95.71c0.06,2.2 -0.96,4.28 -2.72,5.62l-119.91,90.18c-1.18,0.9 -2.63,1.37 -4.1,1.37l-42.52,0c-3.05,0 -5.72,-2.02 -6.57,-4.95c-0.84,-2.93 0.36,-6.06 2.95,-7.67l117.85,-73.64c0.12,-0.09 0.26,-0.17 0.39,-0.23c0.41,-0.23 1.49,-0.8 0.9,-2.38c-0.53,-1.44 -1.56,-1.35 -2.08,-1.25l-43.44,9.54c-2.79,0.74 -5.75,-0.33 -7.39,-2.7c-1.64,-2.37 -1.62,-5.53 0.06,-7.87l27.27,-39.34l-64.78,48.57c-2.17,1.64 -5.1,1.82 -7.47,0.49l-19.95,-11.31l-65.55,55.33c-1.67,1.41 -1.9,3.93 -0.49,5.6l17.3,20.59c1.7,2.03 2.08,4.87 0.96,7.29c-1.12,2.4 -3.54,3.93 -6.2,3.93l-94.07,0c-3.04,0 -5.71,-1.99 -6.56,-4.9c-0.85,-2.92 0.32,-6.04 2.87,-7.68l147.27,-94.2c1.14,-0.73 2.41,-1.08 3.67,-1.08c0.29,0 0.58,0.02 0.87,0.06c0.27,0.03 0.55,0.09 0.82,0.15c0.08,0.02 0.14,0.03 0.21,0.08c0.18,0.05 0.38,0.11 0.56,0.18c0.08,0.02 0.15,0.05 0.24,0.09c0.21,0.09 0.43,0.2 0.64,0.32c0.14,0.06 0.26,0.14 0.39,0.23l19.86,11.24l70.53,-52.9c2.32,-1.75 5.48,-1.82 7.9,-0.21l67.27,45.02c2.11,1.41 3.19,3.81 3.01,6.16l0,0.05c0.02,0.08 0.02,0.17 0.02,0.24l-0.01,-0.02z" class="cls-1"/>
   <g id="svg_24">
    <path stroke="#ffffff" id="svg_25" fill="#ffffff" d="m281.1,14.26l-0.76,-4.36l8.39,-1.47l4.09,23.32l-4.89,0.86l-3.32,-18.96l-3.5,0.61l-0.01,0z" class="cls-1"/>
    <path stroke="#ffffff" id="svg_26" fill="#ffffff" d="m298.96,18.5c-1.1,-7.93 1.34,-12.31 7.31,-13.14c3.17,-0.44 5.59,0.3 7.29,2.24c1.69,1.93 2.79,4.74 3.3,8.41c0.51,3.7 0.22,6.71 -0.88,9.03c-1.1,2.32 -3.23,3.7 -6.4,4.14c-5.98,0.83 -9.52,-2.73 -10.63,-10.68l0.01,0zm13.29,-1.85c-0.33,-2.39 -0.88,-4.19 -1.65,-5.41c-0.77,-1.21 -2,-1.7 -3.71,-1.47c-1.73,0.24 -2.79,1.05 -3.2,2.43c-0.41,1.38 -0.44,3.26 -0.11,5.65c0.34,2.41 0.89,4.23 1.65,5.44c0.77,1.21 2.01,1.7 3.74,1.46c1.71,-0.24 2.76,-1.05 3.17,-2.42c0.41,-1.38 0.44,-3.27 0.11,-5.69l0,0.01z" class="cls-1"/>
    <path stroke="#ffffff" id="svg_27" fill="#ffffff" d="m324.64,15.1c-0.76,-7.97 1.86,-12.24 7.87,-12.81c3.18,-0.3 5.58,0.55 7.18,2.55c1.61,2 2.59,4.85 2.94,8.54c0.36,3.72 -0.07,6.71 -1.26,8.98c-1.2,2.27 -3.39,3.56 -6.57,3.86c-6.01,0.58 -9.39,-3.13 -10.16,-11.12zm13.35,-1.28c-0.23,-2.4 -0.7,-4.23 -1.42,-5.47c-0.71,-1.25 -1.93,-1.79 -3.64,-1.62c-1.74,0.17 -2.84,0.93 -3.3,2.29c-0.47,1.36 -0.58,3.24 -0.35,5.64c0.23,2.42 0.71,4.26 1.42,5.51c0.71,1.25 1.94,1.79 3.67,1.62c1.71,-0.16 2.8,-0.93 3.27,-2.28c0.47,-1.36 0.58,-3.25 0.35,-5.68l0,-0.01z" class="cls-1"/>
    <path stroke="#ffffff" id="svg_28" fill="#ffffff" d="m348.75,5.73l-0.27,-4.42l8.5,-0.53l1.46,23.63l-4.95,0.31l-1.19,-19.21l-3.55,0.22z" class="cls-1"/>
    <path stroke="#ffffff" id="svg_29" fill="#ffffff" d="m403.95,0l0.09,23.41l-4.69,0.02l-0.06,-16.33l-5.94,16.35l-4.09,0.02l-6.06,-16.24l0.06,16.26l-4.73,0.02l-0.09,-23.41l5.73,-0.02l7.17,17.58l6.91,-17.64l5.7,-0.02z" class="cls-1"/>
    <path stroke="#ffffff" id="svg_30" fill="#ffffff" d="m416.65,18.95l-0.16,4.93l-5.09,-0.17l0.16,-4.93l5.09,0.17z" class="cls-1"/>
    <path stroke="#ffffff" id="svg_31" fill="#ffffff" d="m443.88,25.44l-4.72,-0.31l-9.52,-16.76l-1.06,16.06l-4.72,-0.31l1.55,-23.62l4.72,0.31l9.51,16.89l1.07,-16.2l4.72,0.31l-1.55,23.62l0,0.01z" class="cls-1"/>
    <path stroke="#ffffff" id="svg_32" fill="#ffffff" d="m456.76,21.76l-0.49,4.91l-5.07,-0.5l0.49,-4.91l5.07,0.5z" class="cls-1"/>
    <path stroke="#ffffff" id="svg_33" fill="#ffffff" d="m492.06,7.62l-3.19,23.19l-4.65,-0.64l2.23,-16.18l-8.17,15.36l-4.05,-0.56l-3.73,-16.93l-2.22,16.11l-4.68,-0.65l3.19,-23.19l5.68,0.78l4.64,18.41l9.31,-16.49l5.65,0.78l-0.01,0.01z" class="cls-1"/>
    <path stroke="#ffffff" id="svg_34" fill="#ffffff" d="m501.94,28.19l-0.86,4.85l-5.02,-0.89l0.86,-4.85l5.02,0.89z" class="cls-1"/>
   </g>
   <g id="svg_35">
    <polygon stroke="#ffffff" id="svg_36" fill="#ffffff" points="455.57 329.86 464.57 329.86 460.07 316.96 455.57 329.86" class="cls-1"/>
    <path stroke="#ffffff" id="svg_37" fill="#ffffff" d="m406.82,316.47c-0.85,-0.82 -2.17,-1.23 -3.96,-1.23l-5.02,0l0,9.3l5.02,0c3.49,0 5.24,-1.54 5.24,-4.63c0,-1.47 -0.42,-2.62 -1.28,-3.44z" class="cls-1"/>
    <polygon stroke="#ffffff" id="svg_38" fill="#ffffff" points="365.99 329.86 374.99 329.86 370.49 316.96 365.99 329.86" class="cls-1"/>
    <path stroke="#ffffff" id="svg_39" fill="#ffffff" d="m699.49,303.84l75.84,0c2.42,0 4.37,-1.96 4.37,-4.37l0,-94.77c0,-2.42 -1.96,-4.37 -4.37,-4.37l-770.96,0c-2.42,0 -4.37,1.96 -4.37,4.37l0,94.77c0,2.42 1.96,4.37 4.37,4.37l75.72,0c2.78,0 5.24,1.79 6.09,4.43l12.71,39.29c0.58,1.8 2.26,3.03 4.16,3.03l573.48,0c1.9,0 3.58,-1.22 4.16,-3.03l12.71,-39.29c0.85,-2.64 3.31,-4.43 6.09,-4.43zm-690.74,-8.75l0,-86.02l762.21,0l0,86.02l-762.21,0zm457.85,3.83l0,4.67l-9.95,4.67l0,-4.15l9.95,-5.19zm-224.5,30.25l-130.97,0c-1.61,0 -2.92,-1.81 -2.92,-4.04s1.31,-4.04 2.92,-4.04l130.97,0c1.61,0 2.92,1.81 2.92,4.04s-1.31,4.04 -2.92,4.04zm60.71,7.42c-0.78,1.31 -1.93,2.37 -3.46,3.16c-1.53,0.79 -3.39,1.19 -5.58,1.19s-4.1,-0.37 -5.8,-1.1c-1.7,-0.74 -3.07,-1.8 -4.09,-3.18c-1.02,-1.39 -1.61,-3 -1.75,-4.85l6.49,0c0.14,1.24 0.64,2.27 1.49,3.09c0.85,0.82 1.98,1.23 3.4,1.23c1.27,0 2.24,-0.34 2.92,-1.02c0.68,-0.68 1.02,-1.55 1.02,-2.62c0,-0.95 -0.27,-1.74 -0.82,-2.36c-0.55,-0.62 -1.24,-1.12 -2.08,-1.49c-0.84,-0.37 -1.99,-0.81 -3.46,-1.3c-1.9,-0.64 -3.46,-1.26 -4.67,-1.88c-1.21,-0.62 -2.24,-1.52 -3.1,-2.7c-0.85,-1.18 -1.28,-2.73 -1.28,-4.63c0,-2.62 0.94,-4.69 2.84,-6.21c1.89,-1.51 4.39,-2.27 7.51,-2.27s5.8,0.78 7.73,2.34c1.92,1.56 3.01,3.64 3.27,6.23l-6.58,0c-0.17,-1.09 -0.64,-2 -1.39,-2.7c-0.75,-0.71 -1.77,-1.06 -3.07,-1.06c-1.12,0 -2.03,0.3 -2.73,0.89c-0.69,0.59 -1.04,1.45 -1.04,2.58c0,0.89 0.27,1.64 0.8,2.23c0.53,0.59 1.21,1.08 2.03,1.45c0.82,0.37 1.94,0.79 3.35,1.26c1.96,0.69 3.56,1.34 4.78,1.95c1.23,0.61 2.27,1.51 3.14,2.73c0.87,1.21 1.3,2.8 1.3,4.76c0,1.56 -0.39,2.99 -1.17,4.31l0,-0.03zm33.71,4.05l-7.4,0l-11.3,-13.98l0,13.98l-6.1,0l0,-30.55l6.1,0l0,13.72l11.34,-13.72l7.36,0l-12.94,15.02l12.94,15.53zm12.72,0l-6.1,0l0,-30.55l6.1,0l0,30.55zm29.51,0l-2.12,-6.14l-12.25,0l-2.16,6.14l-6.45,0l11.25,-30.2l6.97,0l11.21,30.2l-6.45,0zm28.91,0l-7.14,-11.9l-2.68,0l0,11.9l-6.1,0l0,-30.55l11.64,0c3.55,0 6.25,0.87 8.11,2.6c1.86,1.73 2.79,4.01 2.79,6.84c0,2.31 -0.64,4.24 -1.93,5.8c-1.28,1.56 -3.14,2.6 -5.56,3.12l7.62,12.2l-6.75,0l0,-0.01zm32.2,-25.7l-12.12,0l0,7.92l10.82,0l0,4.67l-10.82,0l0,8.22l12.12,0l0,4.89l-18.22,0l0,-30.55l18.22,0l0,4.85zm28.47,25.7l-2.12,-6.14l-12.25,0l-2.16,6.14l-6.45,0l11.25,-30.2l6.97,0l11.21,30.2l-6.45,0zm29.34,0l-16.36,0l0,-30.55l6.1,0l0,25.88l10.26,0l0,4.67zm172.37,-11.47l-130.97,0c-1.61,0 -2.92,-1.81 -2.92,-4.04s1.31,-4.04 2.92,-4.04l130.97,0c1.61,0 2.92,1.81 2.92,4.04s-1.31,4.04 -2.92,4.04z" class="cls-1"/>
   </g>
  </g>
  <g id="svg_40">
   <path id="svg_41" fill="#ffffff" d="m343.25,427.91l-182.38,0c-1.61,0 -2.92,-1.31 -2.92,-2.92s1.31,-2.92 2.92,-2.92l182.37,0c1.61,0 2.92,1.31 2.92,2.92s-1.31,2.92 -2.92,2.92l0.01,0z" class="cls-1"/>
   <path id="svg_42" fill="#ffffff" d="m632.01,385.75l-195.74,0c-1.61,0 -2.92,-1.31 -2.92,-2.92s1.31,-2.92 2.92,-2.92l195.74,0c1.61,0 2.92,1.31 2.92,2.92s-1.31,2.92 -2.92,2.92z" class="cls-1"/>
   <path id="svg_43" fill="#ffffff" d="m618.67,427.91l-182.37,0c-1.61,0 -2.92,-1.31 -2.92,-2.92s1.31,-2.92 2.92,-2.92l182.37,0c1.61,0 2.92,1.31 2.92,2.92s-1.31,2.92 -2.92,2.92z" class="cls-1"/>
   <path id="svg_44" fill="#ffffff" d="m368.01,437.28c-1.12,0 -2.24,-0.43 -3.1,-1.28c-1.71,-1.71 -1.71,-4.48 0,-6.19l39.5,-39.5s0.09,-0.09 0.14,-0.13c0.06,-0.05 7.1,-6.73 4.62,-13.39c-0.84,-2.27 0.31,-4.79 2.58,-5.63c2.26,-0.85 4.79,0.31 5.63,2.58c4.38,11.78 -5.7,21.75 -6.83,22.82l-39.45,39.45c-0.86,0.86 -1.98,1.28 -3.1,1.28l0.01,-0.01z" class="cls-1"/>
   <path id="svg_45" fill="#ffffff" d="m414.09,437.28c-1.12,0 -2.24,-0.43 -3.1,-1.28l-39.45,-39.45c-1.13,-1.07 -11.21,-11.04 -6.83,-22.82c0.84,-2.27 3.37,-3.43 5.63,-2.58c2.27,0.84 3.42,3.37 2.58,5.63c-2.48,6.66 4.56,13.34 4.64,13.4c0.04,0.04 0.09,0.08 0.12,0.12l39.5,39.5c1.71,1.71 1.71,4.48 0,6.19c-0.86,0.86 -1.98,1.28 -3.1,1.28l0.01,0.01z" class="cls-1"/>
   <path id="svg_46" fill="#ffffff" d="m343.44,385.53l-195.74,0c-1.61,0 -2.92,-1.31 -2.92,-2.92s1.31,-2.92 2.92,-2.92l195.74,0c1.61,0 2.92,1.31 2.92,2.92s-1.31,2.92 -2.92,2.92z" class="cls-1"/>
   <g id="svg_47">
    <path id="svg_48" fill="#ffffff" d="m217.28,411c-0.5,0.82 -1.24,1.48 -2.21,1.97c-0.97,0.49 -2.15,0.74 -3.53,0.74c-2.08,0 -3.8,-0.51 -5.15,-1.52c-1.35,-1.02 -2.09,-2.44 -2.21,-4.26l4.78,0c0.07,0.7 0.32,1.25 0.75,1.66c0.43,0.4 0.98,0.6 1.64,0.6c0.58,0 1.03,-0.16 1.37,-0.47c0.33,-0.32 0.5,-0.74 0.5,-1.26c0,-0.47 -0.15,-0.87 -0.46,-1.18c-0.31,-0.32 -0.69,-0.57 -1.14,-0.78c-0.46,-0.2 -1.09,-0.44 -1.89,-0.72c-1.17,-0.4 -2.13,-0.79 -2.88,-1.17c-0.74,-0.38 -1.38,-0.94 -1.92,-1.68c-0.53,-0.74 -0.8,-1.71 -0.8,-2.9c0,-1.1 0.28,-2.06 0.84,-2.86s1.34,-1.42 2.33,-1.85c0.99,-0.43 2.12,-0.64 3.4,-0.64c2.07,0 3.71,0.49 4.93,1.47s1.91,2.33 2.06,4.05l-4.86,0c-0.09,-0.61 -0.31,-1.1 -0.67,-1.46c-0.36,-0.36 -0.85,-0.54 -1.46,-0.54c-0.52,0 -0.95,0.14 -1.27,0.42c-0.32,0.28 -0.49,0.69 -0.49,1.23c0,0.44 0.15,0.81 0.43,1.12c0.29,0.31 0.65,0.56 1.09,0.75c0.44,0.19 1.07,0.44 1.89,0.74c1.19,0.4 2.16,0.8 2.92,1.19c0.75,0.39 1.4,0.97 1.94,1.72c0.54,0.75 0.81,1.73 0.81,2.94c0,0.98 -0.25,1.88 -0.75,2.71l0.01,-0.02z" class="cls-1"/>
    <path id="svg_49" fill="#ffffff" d="m230.27,394.94l0,18.58l-4.49,0l0,-18.58l4.49,0z" class="cls-1"/>
    <path id="svg_50" fill="#ffffff" d="m255.14,413.52l-4.49,0l-7.52,-11.41l0,11.41l-4.49,0l0,-18.58l4.49,0l7.52,11.51l0,-11.51l4.49,0l0,18.58z" class="cls-1"/>
    <path id="svg_51" fill="#ffffff" d="m277.86,396.62c1.55,1.24 2.55,2.93 3.01,5.05l-4.76,0c-0.35,-0.86 -0.89,-1.53 -1.62,-2.02s-1.59,-0.74 -2.59,-0.74c-1.31,0 -2.37,0.48 -3.18,1.45c-0.81,0.96 -1.21,2.25 -1.21,3.86s0.4,2.9 1.21,3.85c0.81,0.96 1.87,1.43 3.18,1.43c1,0 1.86,-0.25 2.59,-0.74c0.73,-0.49 1.27,-1.16 1.62,-2l4.76,0c-0.46,2.1 -1.46,3.78 -3.01,5.03c-1.55,1.25 -3.51,1.88 -5.87,1.88c-1.81,0 -3.39,-0.4 -4.76,-1.2c-1.37,-0.8 -2.42,-1.91 -3.17,-3.35c-0.75,-1.44 -1.12,-3.08 -1.12,-4.92s0.37,-3.48 1.12,-4.92c0.74,-1.44 1.8,-2.55 3.17,-3.35c1.37,-0.8 2.95,-1.19 4.76,-1.19c2.37,0 4.32,0.62 5.87,1.87l0,0.01z" class="cls-1"/>
    <path id="svg_52" fill="#ffffff" d="m293.14,398.51l0,3.89l6.28,0l0,3.39l-6.28,0l0,4.13l7.07,0l0,3.6l-11.57,0l0,-18.58l11.57,0l0,3.57l-7.07,0z" class="cls-1"/>
   </g>
   <g id="svg_53">
    <path id="svg_54" fill="#ffffff" d="m496.19,400.48c0,-1.44 -0.62,-2.15 -1.87,-2.15c-0.7,0 -1.21,0.25 -1.54,0.74c-0.32,0.49 -0.5,1.25 -0.54,2.29l-4.39,0c0.11,-2.26 0.79,-3.96 2.05,-5.1c1.26,-1.14 2.86,-1.71 4.78,-1.71s3.54,0.51 4.56,1.52c1.03,1.02 1.54,2.34 1.54,3.97c0,1.81 -0.69,3.57 -2.08,5.3c-1.38,1.73 -3.04,3.18 -4.97,4.38l7.33,0l0,3.63l-13.25,0l0,-3.37c5.57,-3.98 8.36,-7.14 8.36,-9.49l0.02,-0.01z" class="cls-1"/>
    <path id="svg_55" fill="#ffffff" d="m509.49,404.06c0,-2.89 0.59,-5.18 1.76,-6.87c1.17,-1.69 3.05,-2.54 5.63,-2.54s4.43,0.85 5.61,2.54c1.18,1.69 1.77,3.98 1.77,6.87s-0.59,5.21 -1.77,6.91c-1.18,1.7 -3.05,2.55 -5.61,2.55s-4.45,-0.85 -5.63,-2.55c-1.17,-1.7 -1.76,-4 -1.76,-6.91zm10.3,0c0,-1.66 -0.2,-2.94 -0.59,-3.82c-0.39,-0.88 -1.17,-1.33 -2.33,-1.33s-1.96,0.45 -2.37,1.34c-0.4,0.89 -0.6,2.16 -0.6,3.81s0.2,2.95 0.6,3.85c0.4,0.9 1.19,1.35 2.37,1.35s1.93,-0.45 2.33,-1.35c0.39,-0.9 0.59,-2.18 0.59,-3.85z" class="cls-1"/>
    <path id="svg_56" fill="#ffffff" d="m541.13,400.48c0,-1.44 -0.62,-2.15 -1.87,-2.15c-0.7,0 -1.21,0.25 -1.54,0.74s-0.5,1.25 -0.54,2.29l-4.39,0c0.11,-2.26 0.79,-3.96 2.05,-5.1s2.86,-1.71 4.78,-1.71s3.54,0.51 4.56,1.52c1.03,1.02 1.54,2.34 1.54,3.97c0,1.81 -0.69,3.57 -2.08,5.3c-1.38,1.73 -3.04,3.18 -4.97,4.38l7.33,0l0,3.63l-13.25,0l0,-3.37c5.57,-3.98 8.36,-7.14 8.36,-9.49l0.02,-0.01z" class="cls-1"/>
    <path id="svg_57" fill="#ffffff" d="m562.58,400.48c0,-1.44 -0.62,-2.15 -1.87,-2.15c-0.7,0 -1.21,0.25 -1.54,0.74c-0.32,0.49 -0.5,1.25 -0.54,2.29l-4.39,0c0.11,-2.26 0.79,-3.96 2.05,-5.1c1.26,-1.14 2.86,-1.71 4.78,-1.71s3.54,0.51 4.56,1.52c1.03,1.02 1.54,2.34 1.54,3.97c0,1.81 -0.69,3.57 -2.08,5.3c-1.38,1.73 -3.04,3.18 -4.97,4.38l7.33,0l0,3.63l-13.25,0l0,-3.37c5.57,-3.98 8.36,-7.14 8.36,-9.49l0.02,-0.01z" class="cls-1"/>
   </g>
  </g>
 </g>
</svg>