<svg xmlns="http://www.w3.org/2000/svg" width="40" height="40" viewBox="0 0 40 40">
    <g fill="none">
        <path d="M0 0H40V40H0z"/>
        <g>
            <path fill="#000" d="M34.043 0H2.965l-.323.006c-.235.006-.471.02-.703.061-.236.043-.455.112-.669.22C1.06.396.868.536.701.702c-.167.167-.307.36-.413.57-.11.213-.178.433-.22.668-.042.232-.056.469-.063.703-.003.108-.004.215-.004.323L0 3.35v17.624c.001.108.002.215.005.323.007.234.02.47.063.703.042.235.11.455.22.668.106.21.246.403.413.57.167.167.36.306.57.413.213.11.432.178.668.22.232.042.468.056.703.063l.323.004h31.462c.107 0 .215-.002.323-.004.234-.007.47-.02.703-.062.235-.043.454-.112.668-.22.21-.108.402-.247.57-.414.166-.167.306-.36.413-.57.11-.213.178-.433.22-.668.042-.232.056-.469.062-.703.003-.108.004-.215.005-.323V3.35v-.384c0-.108-.002-.215-.005-.323-.006-.234-.02-.47-.062-.703-.042-.235-.11-.455-.22-.668-.107-.21-.247-.403-.413-.57-.168-.166-.36-.306-.57-.413-.214-.109-.433-.178-.668-.22-.232-.042-.469-.056-.703-.062-.108-.003-.216-.004-.323-.005L34.043 0z" transform="translate(1.25 8.125)"/>
            <path fill="#FFF" d="M34.043.798h.378c.102.001.204.002.307.005.18.005.388.015.584.05.17.03.311.077.448.146.135.069.258.158.366.266.108.108.198.232.267.368.07.136.116.277.146.448.035.193.044.403.05.583l.004.307V20.97c0 .102-.002.204-.005.305-.005.18-.014.39-.05.585-.03.169-.076.31-.145.446-.07.136-.159.26-.267.367-.108.109-.231.198-.367.267-.136.07-.278.116-.446.146-.199.036-.417.045-.581.05-.104.002-.206.004-.312.004l-.377.001H3.344l-.375-.001c-.103 0-.206-.002-.305-.004-.168-.005-.387-.014-.584-.05-.17-.03-.311-.076-.449-.147-.135-.068-.258-.157-.366-.266-.108-.107-.197-.23-.266-.367-.07-.136-.116-.278-.146-.448-.036-.195-.045-.404-.05-.582-.003-.103-.004-.205-.005-.307V2.97C.8 2.868.8 2.766.803 2.664c.005-.179.014-.388.05-.584.03-.17.076-.311.146-.448.069-.135.158-.258.266-.367.108-.107.232-.197.367-.266.136-.07.278-.116.448-.146.195-.035.404-.045.584-.05C2.766.8 2.868.8 2.97.8l.379-.001h30.694" transform="translate(1.25 8.125)"/>
            <g fill="#000">
                <path d="M5.238 1.5c.32-.4.537-.938.48-1.487-.469.023-1.04.309-1.372.71-.297.343-.56.903-.492 1.43.527.045 1.052-.264 1.384-.653M5.712 2.255c-.764-.045-1.414.434-1.779.434s-.923-.411-1.528-.4C1.62 2.301.89 2.745.49 3.453c-.821 1.415-.217 3.514.582 4.666.387.57.854 1.198 1.47 1.175.582-.023.81-.376 1.517-.376.706 0 .912.376 1.528.365.638-.012 1.037-.57 1.425-1.141.445-.65.627-1.278.638-1.312-.011-.012-1.231-.48-1.242-1.883-.012-1.175.957-1.734 1.003-1.768-.547-.81-1.403-.901-1.699-.924" transform="translate(1.25 8.125) translate(4.97 6.551)"/>
                <g>
                    <path d="M3.328.213c1.661 0 2.817 1.145 2.817 2.811 0 1.673-1.18 2.824-2.858 2.824H1.448V8.77H.12V.213h3.208zm-1.88 4.52h1.524c1.157 0 1.815-.623 1.815-1.703 0-1.079-.658-1.696-1.809-1.696h-1.53v3.399zM6.492 6.998c0-1.091.837-1.761 2.32-1.844l1.708-.101v-.48c0-.694-.47-1.11-1.252-1.11-.741 0-1.204.356-1.316.914h-1.21C6.812 3.25 7.773 2.42 9.316 2.42c1.512 0 2.479.8 2.479 2.052v4.3h-1.228V7.744h-.03c-.361.694-1.15 1.133-1.969 1.133-1.221 0-2.076-.759-2.076-1.88zm4.028-.563v-.492l-1.537.094c-.765.054-1.198.392-1.198.926 0 .545.451.901 1.14.901.895 0 1.595-.617 1.595-1.43zM12.954 11.067v-1.038c.094.024.308.024.415.024.593 0 .913-.25 1.109-.89 0-.012.113-.38.113-.386l-2.254-6.245h1.388l1.577 5.077h.024l1.578-5.077h1.352l-2.337 6.566c-.534 1.512-1.15 1.998-2.443 1.998-.107 0-.428-.011-.522-.03z" transform="translate(1.25 8.125) translate(4.97 6.551) translate(9.036 .452)"/>
                </g>
            </g>
        </g>
    </g>
</svg>
