<?xml version="1.0" encoding="UTF-8" standalone="no" ?>
<!DOCTYPE svg PUBLIC "-//W3C//DTD SVG 1.1//EN" "http://www.w3.org/Graphics/SVG/1.1/DTD/svg11.dtd">
<svg xmlns="http://www.w3.org/2000/svg" xmlns:xlink="http://www.w3.org/1999/xlink" version="1.1" width="1080" height="1080" viewBox="0 0 1080 1080" xml:space="preserve">
<desc>Created with Fabric.js 5.2.4</desc>
<defs>
</defs>
<g transform="matrix(1 0 0 1 540 540)" id="3ec91995-7e20-4656-b842-d14288a705fc"  >
<rect style="stroke: none; stroke-width: 1; stroke-dasharray: none; stroke-linecap: butt; stroke-dashoffset: 0; stroke-linejoin: miter; stroke-miterlimit: 4; fill: rgb(255,255,255); fill-rule: nonzero; opacity: 1; visibility: hidden;" vector-effect="non-scaling-stroke"  x="-540" y="-540" rx="0" ry="0" width="1080" height="1080" />
</g>
<g transform="matrix(1 0 0 1 540 540)" id="37fcbb53-f16c-40c5-908e-b80ef027c565"  >
</g>
<g transform="matrix(1 0 0 1 540 540)"  >
<rect style="stroke: none; stroke-width: 1; stroke-dasharray: none; stroke-linecap: butt; stroke-dashoffset: 0; stroke-linejoin: miter; stroke-miterlimit: 4; fill: rgb(208,139,139); fill-rule: nonzero; opacity: 1; visibility: hidden;" vector-effect="non-scaling-stroke"  x="-540" y="-540" rx="0" ry="0" width="1080" height="1080" />
</g>
<g transform="matrix(1.59 0 0 1.59 540 744.47)"  >
<path style="stroke: none; stroke-width: 1; stroke-dasharray: none; stroke-linecap: butt; stroke-dashoffset: 0; stroke-linejoin: miter; stroke-miterlimit: 4; fill: rgb(255,255,255); fill-rule: nonzero; opacity: 1;" vector-effect="non-scaling-stroke"  transform=" translate(-250.95, -379.24)" d="M 296.284 357.902 L 205.617 357.902 C 193.884 357.902 184.284 367.502 184.284 379.235 C 184.284 390.968 193.884 400.568 205.617 400.568 L 296.284 400.568 C 308.017 400.568 317.61699999999996 390.96799999999996 317.61699999999996 379.235 C 317.61699999999996 367.50200000000007 308.018 357.902 296.284 357.902 z" stroke-linecap="round" />
</g>
<g transform="matrix(1.59 0 0 1.59 540 540)"  >
<path style="stroke: none; stroke-width: 1; stroke-dasharray: none; stroke-linecap: butt; stroke-dashoffset: 0; stroke-linejoin: miter; stroke-miterlimit: 4; fill: rgb(255,255,255); fill-rule: nonzero; opacity: 1;" vector-effect="non-scaling-stroke"  transform=" translate(-250.95, -250.95)" d="M 384.818 170.168 C 381.618 164.835 375.21799999999996 161.63500000000002 368.818 161.63500000000002 L 271.751 161.63500000000002 L 271.751 75.23500000000001 L 351.751 40.03500000000001 C 362.41799999999995 34.70200000000001 366.68399999999997 22.96800000000001 362.41799999999995 12.30200000000001 C 357.0849999999999 1.6350000000000104 345.35099999999994 -2.6309999999999896 334.68499999999995 1.6350000000000104 L 140.551 85.902 C 129.884 91.235 125.618 102.969 129.884 113.635 C 133.08399999999997 122.168 140.551 126.435 149.08399999999997 126.435 C 151.21699999999998 126.435 154.41699999999997 125.36800000000001 157.61699999999996 124.302 L 229.08399999999995 93.369 L 229.08399999999995 162.702 L 133.08399999999995 162.702 C 126.68399999999994 162.702 121.35099999999994 165.902 117.08399999999995 171.23499999999999 C 5.083999999999946 315.235 116.01699999999995 461.36799999999994 117.08399999999995 462.43499999999995 C 120.28399999999995 467.768 126.68399999999994 470.96799999999996 133.08399999999995 470.96799999999996 L 148.01699999999994 470.96799999999996 L 148.01699999999994 480.568 C 148.01699999999994 492.301 157.61699999999993 501.90099999999995 169.34999999999994 501.90099999999995 C 180.01699999999994 501.90099999999995 189.61699999999993 492.30099999999993 190.68299999999994 480.568 L 190.68299999999994 470.96799999999996 L 312.2829999999999 470.96799999999996 L 312.2829999999999 480.568 C 312.2829999999999 492.301 321.8829999999999 501.90099999999995 333.6159999999999 501.90099999999995 C 345.3489999999998 501.90099999999995 354.94899999999984 492.30099999999993 354.94899999999984 480.568 L 354.94899999999984 470.96799999999996 L 369.88199999999983 470.96799999999996 C 376.2819999999998 470.96799999999996 382.68199999999985 467.768 384.8149999999998 461.36799999999994 C 385.884 460.302 496.818 314.168 384.818 170.168 z M 143.751 204.302 L 358.151 204.302 C 380.551 235.23499999999999 390.151 266.169 393.351 294.969 L 109.617 294.969 C 111.751 266.168 121.351 235.235 143.751 204.302 z M 358.151 428.302 L 143.751 428.302 C 134.151 413.369 116.018 380.302 109.618 337.635 L 392.28499999999997 337.635 C 385.884 380.302 367.751 413.368 358.151 428.302 z" stroke-linecap="round" />
</g>
</svg>