<svg width="24" height="24" xmlns="http://www.w3.org/2000/svg" fill="none">

 <g>
  <title>Layer 1</title>
  <g>
   <path stroke-linejoin="round" stroke-linecap="round" stroke-width="2" stroke="#587095" d="m3.04032,8.95968c0,-1.10457 0.89543,-2 2,-2l1.5,0c0.62951,0 1.22229,-0.29639 1.6,-0.8l1.05,-1.4c0.37771,-0.50361 0.9705,-0.8 1.6,-0.8l2.5,0c0.6295,0 1.2223,0.29639 1.6,0.8l1.05,1.4c0.3777,0.50361 0.9705,0.8 1.6,0.8l1.5,0c1.1046,0 2,0.89543 2,2l0,9c0,1.1046 -0.8954,2 -2,2l-14,0c-1.10457,0 -2,-0.8954 -2,-2l0,-9z"/>
   <circle stroke-linejoin="round" stroke-linecap="round" stroke-width="2" stroke="#587095" r="4" cy="12.95968" cx="12.04032"/>
  </g>
 </g>
</svg>