<svg xmlns="http://www.w3.org/2000/svg" width="40" height="40" viewBox="0 0 40 40">
    <g fill="none" fill-rule="evenodd">
        <path fill-rule="nonzero" d="M0 0H40V40H0z"/>
        <g>
            <path fill="#FFF101" d="M0.679 29.375L31.25 29.375 31.25 0.683 0.679 0.683z" transform="translate(4.375 5.625)"/>
            <path fill="#1A1919" d="M15.575 18.22l9.406 8.814 3.683-3.458-9.416-8.838 1.836-1.71V9.59l1.308-1.23.003 2.853 1.278 1.184 4.593-4.319 1.242 1.151c0-.74-.233-3.297-2.418-5.298-2.446-2.24-4.895-.93-5.738-.137L16.916 7.96l1.104 1.035-2.445 2.288-2.441-2.288 1.103-1.035-4.434-4.166C8.96 3 6.51 1.69 4.064 3.932c-2.185 2-2.367 4.557-2.367 5.299l1.191-1.153 4.592 4.319L8.76 11.2l.001-2.84 1.308 1.23-.002 3.43 1.84 1.72-9.323 8.748 3.678 3.447 9.313-8.716M.838 28.553l29.53.009V.828L.834.825l.004 27.728M0 0h31.248l.002 29.374L0 29.375V0" transform="translate(4.375 5.625)"/>
        </g>
    </g>
</svg>
