<svg width="24" height="24" xmlns="http://www.w3.org/2000/svg" fill="none">

 <g>
  <title>Layer 1</title>
  <path id="svg_1" fill="#c6a671" stroke-linejoin="round" stroke-linecap="round" stroke-width="1.5" stroke="#c6a671" d="m3,12l2,0m0.00006,7l2,-2m4.99994,2l0,2m5,-4l2,2m-14,-14l2,2m12,5l2,0m-4.0001,-5l2,-2m-6.9999,-2l0,2m3,7c0,1.6569 -1.3431,3 -3,3c-1.6569,0 -3,-1.3431 -3,-3c0,-1.6569 1.3431,-3 3,-3c1.6569,0 3,1.3431 3,3z"/>
  <ellipse ry="2.18106" rx="2.0576" id="svg_2" cy="12" cx="12" stroke="#ffffff" fill="#fff"/>
  <ellipse ry="0.39094" rx="0.04115" id="svg_3" cy="11.55952" cx="12.49382" stroke="#ffffff" fill="#fff"/>
 </g>
</svg>