<svg xmlns="http://www.w3.org/2000/svg" id="Vrstva_1" viewBox="0 0 779.71 437.28"><defs fill="#000000"><style>.cls-1{fill:#a5b2c6;}</style></defs><g><path class="cls-1" d="M729.19,299.17c-9.74,45.32-28.92,88.57-56.86,127.6-1.88,2.62-1.27,6.26,1.35,8.14,1.03,.74,2.22,1.09,3.39,1.09,1.82,0,3.61-.85,4.75-2.44,29.39-41.04,49.4-86.63,59.3-134.39h-11.92Z" fill="#000000"/><path class="cls-1" d="M47.24,299.71c9.74,45.32,28.92,88.57,56.86,127.6,1.88,2.62,1.27,6.26-1.35,8.14-1.03,.74-2.22,1.09-3.39,1.09-1.82,0-3.61-.85-4.75-2.44-29.39-41.04-49.4-86.63-59.3-134.39h11.92Z" fill="#000000"/><path class="cls-1" d="M738.78,204.4h11.69c-4.6-64.12-27.03-125.76-65.57-179.59-1.88-2.62-5.52-3.22-8.14-1.35-2.62,1.88-3.22,5.52-1.35,8.14,37.11,51.83,58.78,111.12,63.36,172.8Z" fill="#000000"/><path class="cls-1" d="M642.96,186.06c0,1-.23,2.02-.68,2.98-.2,.39-.43,.77-.7,1.12-.74,1-1.73,1.75-2.82,2.2-.58,.24-1.18,.39-1.82,.47-.32,.05-.62,.05-.93,.05h-94.37c-2.78,0-5.28-1.67-6.33-4.24l-5.83-14.26c-.58-1.43-1.75-1.82-2.4-1.94-.64-.12-1.88-.15-2.93,.97l-15.97,17.28c-1.82,1.96-4.6,2.69-7.15,1.85-2.54-.84-4.36-3.07-4.66-5.71l-8.64-75.25-106.18,80.39c-1.25,.94-2.69,1.38-4.13,1.38-2.07,0-4.1-.93-5.45-2.7-.93-1.23-1.38-2.69-1.38-4.11,0-2.07,.94-4.12,2.7-5.45l115.71-87.6c.08-.06,.15-.11,.21-.17h.02c.7-.49,1.46-.84,2.26-1.03,0,0,0-.02,.02-.02h.03c.41-.11,.84-.17,1.26-.18h.03s0-.02,.02-.02h.27c1.25,0,2.48,.32,3.58,.99,0,0,.02,0,.02,.02l142.99,87.14,.02,.02h.02c1.49,.91,2.49,2.31,2.96,3.86,.14,.47,.23,.97,.27,1.46v.02c.02,.17,.02,.33,.02,.5Z" fill="#000000"/><path class="cls-1" d="M462.2,95.71c.06,2.2-.96,4.28-2.72,5.62l-119.91,90.18c-1.18,.9-2.63,1.37-4.1,1.37h-42.52c-3.05,0-5.72-2.02-6.57-4.95-.84-2.93,.36-6.06,2.95-7.67l117.85-73.64c.12-.09,.26-.17,.39-.23,.41-.23,1.49-.8,.9-2.38-.53-1.44-1.56-1.35-2.08-1.25l-43.44,9.54c-2.79,.74-5.75-.33-7.39-2.7-1.64-2.37-1.62-5.53,.06-7.87l27.27-39.34-64.78,48.57c-2.17,1.64-5.1,1.82-7.47,.49l-19.95-11.31-65.55,55.33c-1.67,1.41-1.9,3.93-.49,5.6l17.3,20.59c1.7,2.03,2.08,4.87,.96,7.29-1.12,2.4-3.54,3.93-6.2,3.93h-94.07c-3.04,0-5.71-1.99-6.56-4.9-.85-2.92,.32-6.04,2.87-7.68l147.27-94.2c1.14-.73,2.41-1.08,3.67-1.08,.29,0,.58,.02,.87,.06,.27,.03,.55,.09,.82,.15,.08,.02,.14,.03,.21,.08,.18,.05,.38,.11,.56,.18,.08,.02,.15,.05,.24,.09,.21,.09,.43,.2,.64,.32,.14,.06,.26,.14,.39,.23l19.86,11.24,70.53-52.9c2.32-1.75,5.48-1.82,7.9-.21l67.27,45.02c2.11,1.41,3.19,3.81,3.01,6.16v.05c.02,.08,.02,.17,.02,.24Z" fill="#000000"/><path class="cls-1" d="M43.82,204.94h-11.69c4.6-64.12,27.03-125.76,65.57-179.59,1.88-2.62,5.52-3.22,8.14-1.35,2.62,1.88,3.22,5.52,1.35,8.14-37.11,51.83-58.78,111.12-63.36,172.8Z" fill="#000000"/><g><path class="cls-1" d="M117.77,235.73c3.22,1.84,5.76,4.39,7.62,7.65,1.86,3.26,2.79,6.95,2.79,11.05s-.94,7.81-2.82,11.09c-1.88,3.28-4.43,5.84-7.65,7.68-3.22,1.84-6.79,2.76-10.7,2.76s-7.48-.92-10.7-2.76c-3.22-1.84-5.77-4.4-7.65-7.68-1.88-3.28-2.82-6.97-2.82-11.09s.94-7.79,2.82-11.05c1.88-3.26,4.43-5.81,7.65-7.65,3.22-1.84,6.79-2.76,10.7-2.76s7.54,.92,10.76,2.76Zm-18.67,9.9c-1.96,2.15-2.93,5.09-2.93,8.8s.98,6.6,2.93,8.77c1.96,2.17,4.59,3.26,7.91,3.26s5.91-1.09,7.88-3.26c1.98-2.17,2.96-5.1,2.96-8.77s-.98-6.6-2.93-8.77c-1.96-2.17-4.59-3.26-7.91-3.26s-5.96,1.08-7.91,3.23Z" fill="#000000"/><path class="cls-1" d="M166.29,275.53l-9.07-15.83h-2.31v15.83h-10.14v-41.91h17.31c3.32,0,6.12,.57,8.42,1.72,2.29,1.15,4.01,2.72,5.16,4.71,1.15,2,1.72,4.28,1.72,6.85,0,3.04-.84,5.63-2.52,7.77-1.68,2.13-4.12,3.6-7.32,4.39l9.96,16.48h-11.2Zm-11.38-22.76h6.28c2.01,0,3.5-.44,4.45-1.33,.95-.89,1.42-2.2,1.42-3.94s-.48-2.96-1.45-3.91c-.97-.95-2.44-1.42-4.42-1.42h-6.28v10.61Z" fill="#000000"/><path class="cls-1" d="M200.44,267.77h13.52v7.77h-23.65v-41.91h10.14v34.14Z" fill="#000000"/><path class="cls-1" d="M236.6,233.62v41.91h-10.14v-41.91h10.14Z" fill="#000000"/><path class="cls-1" d="M283.81,237.42c3.5,2.81,5.76,6.6,6.79,11.38h-10.73c-.79-1.94-2.01-3.46-3.65-4.56-1.64-1.11-3.59-1.66-5.84-1.66-2.96,0-5.36,1.09-7.17,3.26-1.82,2.17-2.73,5.08-2.73,8.71s.91,6.53,2.73,8.68c1.82,2.15,4.21,3.23,7.17,3.23,2.25,0,4.2-.55,5.84-1.66,1.64-1.11,2.85-2.61,3.65-4.51h10.73c-1.03,4.74-3.29,8.53-6.79,11.35-3.5,2.83-7.91,4.24-13.25,4.24-4.07,0-7.65-.9-10.73-2.7-3.08-1.8-5.46-4.32-7.14-7.56-1.68-3.24-2.52-6.94-2.52-11.09s.84-7.84,2.52-11.08c1.68-3.24,4.06-5.76,7.14-7.56,3.08-1.8,6.66-2.7,10.73-2.7,5.34,0,9.75,1.4,13.25,4.21Z" fill="#000000"/><path class="cls-1" d="M323.85,254.13l16.89,21.4h-12.27l-14.23-18.79v18.79h-10.14v-41.91h10.14v18.44l14.34-18.44h12.15l-16.89,20.51Z" fill="#000000"/><path class="cls-1" d="M362.97,241.69v8.77h14.17v7.65h-14.17v9.31h15.94v8.12h-26.08v-41.91h26.08v8.06h-15.94Zm11.44-16.54l-14.29,6.11v-6.88l14.29-6.88v7.65Z" fill="#000000"/><path class="cls-1" d="M442.34,267.35h18.49v8.18h-29.76v-7.71l18.2-26.08h-17.96v-8.12h29.4v7.71l-18.38,26.02Z" fill="#000000"/><path class="cls-1" d="M500.85,267.89h-15.71l-2.61,7.65h-10.67l15.35-41.61h11.68l15.35,41.61h-10.79l-2.61-7.65Zm.71-42.74l-14.29,6.11v-6.88l14.29-6.88v7.65Zm-3.32,35.03l-5.22-15.41-5.28,15.41h10.49Z" fill="#000000"/><path class="cls-1" d="M562.2,233.62v41.91h-10.2v-17.49h-15.89v17.49h-10.14v-41.91h10.14v16.24h15.89v-16.24h10.2Z" fill="#000000"/><path class="cls-1" d="M607.7,235.73c3.22,1.84,5.76,4.39,7.62,7.65,1.86,3.26,2.79,6.95,2.79,11.05s-.94,7.81-2.82,11.09c-1.88,3.28-4.43,5.84-7.65,7.68-3.22,1.84-6.79,2.76-10.7,2.76s-7.48-.92-10.7-2.76c-3.22-1.84-5.77-4.4-7.65-7.68-1.88-3.28-2.82-6.97-2.82-11.09s.94-7.79,2.82-11.05c1.88-3.26,4.43-5.81,7.65-7.65,3.22-1.84,6.79-2.76,10.7-2.76s7.54,.92,10.76,2.76Zm-18.67,9.9c-1.96,2.15-2.93,5.09-2.93,8.8s.98,6.6,2.93,8.77c1.96,2.17,4.59,3.26,7.91,3.26s5.91-1.09,7.88-3.26c1.98-2.17,2.96-5.1,2.96-8.77s-.98-6.6-2.93-8.77c-1.96-2.17-4.59-3.26-7.91-3.26s-5.96,1.08-7.91,3.23Z" fill="#000000"/><path class="cls-1" d="M653.13,275.53l-9.07-15.83h-2.31v15.83h-10.14v-41.91h17.31c3.32,0,6.12,.57,8.42,1.72,2.29,1.15,4.01,2.72,5.16,4.71,1.15,2,1.72,4.28,1.72,6.85,0,3.04-.84,5.63-2.52,7.77-1.68,2.13-4.12,3.6-7.32,4.39l9.96,16.48h-11.2Zm4.09-49.26l-9.19,4.98-9.19-4.98v-6.7l9.19,5.1,9.19-5.1v6.7Zm-15.47,26.5h6.28c2.02,0,3.5-.44,4.45-1.33,.95-.89,1.42-2.2,1.42-3.94s-.48-2.96-1.45-3.91c-.97-.95-2.44-1.42-4.42-1.42h-6.28v10.61Z" fill="#000000"/><path class="cls-1" d="M690.77,225.15l-14.29,6.11v-6.88l14.29-6.88v7.65Zm-3.5,8.48v41.91h-10.14v-41.91h10.14Z" fill="#000000"/></g><path class="cls-1" d="M643,186.06c0,1-.23,2.02-.68,2.98-.2,.39-.43,.77-.7,1.12-.74,1-1.73,1.75-2.82,2.2-.58,.24-1.18,.39-1.82,.47-.32,.05-.62,.05-.93,.05h-94.37c-2.78,0-5.28-1.67-6.33-4.24l-5.83-14.26c-.58-1.43-1.75-1.82-2.4-1.94-.64-.12-1.88-.15-2.93,.97l-15.97,17.28c-1.82,1.96-4.6,2.69-7.15,1.85-2.54-.84-4.36-3.07-4.66-5.71l-8.64-75.25-106.18,80.39c-1.25,.94-2.69,1.38-4.13,1.38-2.07,0-4.1-.93-5.45-2.7-.93-1.23-1.38-2.69-1.38-4.11,0-2.07,.94-4.12,2.7-5.45l115.71-87.6c.08-.06,.15-.11,.21-.17h.02c.7-.49,1.46-.84,2.26-1.03,0,0,0-.02,.02-.02h.03c.41-.11,.84-.17,1.26-.18h.03s0-.02,.02-.02h.27c1.25,0,2.48,.32,3.58,.99,0,0,.02,0,.02,.02l142.99,87.14,.02,.02h.02c1.49,.91,2.49,2.31,2.96,3.86,.14,.47,.23,.97,.27,1.46v.02c.02,.17,.02,.33,.02,.5Z" fill="#000000"/><path class="cls-1" d="M462.24,95.71c.06,2.2-.96,4.28-2.72,5.62l-119.91,90.18c-1.18,.9-2.63,1.37-4.1,1.37h-42.52c-3.05,0-5.72-2.02-6.57-4.95-.84-2.93,.36-6.06,2.95-7.67l117.85-73.64c.12-.09,.26-.17,.39-.23,.41-.23,1.49-.8,.9-2.38-.53-1.44-1.56-1.35-2.08-1.25l-43.44,9.54c-2.79,.74-5.75-.33-7.39-2.7-1.64-2.37-1.62-5.53,.06-7.87l27.27-39.34-64.78,48.57c-2.17,1.64-5.1,1.82-7.47,.49l-19.95-11.31-65.55,55.33c-1.67,1.41-1.9,3.93-.49,5.6l17.3,20.59c1.7,2.03,2.08,4.87,.96,7.29-1.12,2.4-3.54,3.93-6.2,3.93h-94.07c-3.04,0-5.71-1.99-6.56-4.9-.85-2.92,.32-6.04,2.87-7.68l147.27-94.2c1.14-.73,2.41-1.08,3.67-1.08,.29,0,.58,.02,.87,.06,.27,.03,.55,.09,.82,.15,.08,.02,.14,.03,.21,.08,.18,.05,.38,.11,.56,.18,.08,.02,.15,.05,.24,.09,.21,.09,.43,.2,.64,.32,.14,.06,.26,.14,.39,.23l19.86,11.24,70.53-52.9c2.32-1.75,5.48-1.82,7.9-.21l67.27,45.02c2.11,1.41,3.19,3.81,3.01,6.16v.05c.02,.08,.02,.17,.02,.24Z" fill="#000000"/><g><path class="cls-1" d="M281.1,14.26l-.76-4.36,8.39-1.47,4.09,23.32-4.89,.86-3.32-18.96-3.5,.61Z" fill="#000000"/><path class="cls-1" d="M298.96,18.5c-1.1-7.93,1.34-12.31,7.31-13.14,3.17-.44,5.59,.3,7.29,2.24,1.69,1.93,2.79,4.74,3.3,8.41,.51,3.7,.22,6.71-.88,9.03-1.1,2.32-3.23,3.7-6.4,4.14-5.98,.83-9.52-2.73-10.63-10.68Zm13.29-1.85c-.33-2.39-.88-4.19-1.65-5.41-.77-1.21-2-1.7-3.71-1.47-1.73,.24-2.79,1.05-3.2,2.43-.41,1.38-.44,3.26-.11,5.65,.34,2.41,.89,4.23,1.65,5.44,.77,1.21,2.01,1.7,3.74,1.46,1.71-.24,2.76-1.05,3.17-2.42,.41-1.38,.44-3.27,.11-5.69Z" fill="#000000"/><path class="cls-1" d="M324.64,15.1c-.76-7.97,1.86-12.24,7.87-12.81,3.18-.3,5.58,.55,7.18,2.55,1.61,2,2.59,4.85,2.94,8.54,.36,3.72-.07,6.71-1.26,8.98-1.2,2.27-3.39,3.56-6.57,3.86-6.01,.58-9.39-3.13-10.16-11.12Zm13.35-1.28c-.23-2.4-.7-4.23-1.42-5.47-.71-1.25-1.93-1.79-3.64-1.62-1.74,.17-2.84,.93-3.3,2.29-.47,1.36-.58,3.24-.35,5.64,.23,2.42,.71,4.26,1.42,5.51,.71,1.25,1.94,1.79,3.67,1.62,1.71-.16,2.8-.93,3.27-2.28,.47-1.36,.58-3.25,.35-5.68Z" fill="#000000"/><path class="cls-1" d="M348.75,5.73l-.27-4.42,8.5-.53,1.46,23.63-4.95,.31-1.19-19.21-3.55,.22Z" fill="#000000"/><path class="cls-1" d="M403.95,0l.09,23.41-4.69,.02-.06-16.33-5.94,16.35-4.09,.02-6.06-16.24,.06,16.26-4.73,.02-.09-23.41,5.73-.02,7.17,17.58L398.25,.02l5.7-.02Z" fill="#000000"/><path class="cls-1" d="M416.65,18.95l-.16,4.93-5.09-.17,.16-4.93,5.09,.17Z" fill="#000000"/><path class="cls-1" d="M443.88,25.44l-4.72-.31-9.52-16.76-1.06,16.06-4.72-.31,1.55-23.62,4.72,.31,9.51,16.89,1.07-16.2,4.72,.31-1.55,23.62Z" fill="#000000"/><path class="cls-1" d="M456.76,21.76l-.49,4.91-5.07-.5,.49-4.91,5.07,.5Z" fill="#000000"/><path class="cls-1" d="M492.06,7.62l-3.19,23.19-4.65-.64,2.23-16.18-8.17,15.36-4.05-.56-3.73-16.93-2.22,16.11-4.68-.65,3.19-23.19,5.68,.78,4.64,18.41,9.31-16.49,5.65,.78Z" fill="#000000"/><path class="cls-1" d="M501.94,28.19l-.86,4.85-5.02-.89,.86-4.85,5.02,.89Z" fill="#000000"/></g><g><polygon class="cls-1" points="455.57 329.86 464.57 329.86 460.07 316.96 455.57 329.86" fill="#000000"/><path class="cls-1" d="M406.82,316.47c-.85-.82-2.17-1.23-3.96-1.23h-5.02v9.3h5.02c3.49,0,5.24-1.54,5.24-4.63,0-1.47-.42-2.62-1.28-3.44Z" fill="#000000"/><polygon class="cls-1" points="365.99 329.86 374.99 329.86 370.49 316.96 365.99 329.86" fill="#000000"/><path class="cls-1" d="M699.49,303.84h75.84c2.42,0,4.37-1.96,4.37-4.37v-94.77c0-2.42-1.96-4.37-4.37-4.37H4.37c-2.42,0-4.37,1.96-4.37,4.37v94.77c0,2.42,1.96,4.37,4.37,4.37H80.09c2.78,0,5.24,1.79,6.09,4.43l12.71,39.29c.58,1.8,2.26,3.03,4.16,3.03H676.53c1.9,0,3.58-1.22,4.16-3.03l12.71-39.29c.85-2.64,3.31-4.43,6.09-4.43ZM8.75,295.09v-86.02H770.96v86.02H8.75Zm457.85,3.83v4.67l-9.95,4.67v-4.15l9.95-5.19Zm-224.5,30.25H111.13c-1.61,0-2.92-1.81-2.92-4.04s1.31-4.04,2.92-4.04H242.1c1.61,0,2.92,1.81,2.92,4.04s-1.31,4.04-2.92,4.04Zm60.71,7.42c-.78,1.31-1.93,2.37-3.46,3.16-1.53,.79-3.39,1.19-5.58,1.19s-4.1-.37-5.8-1.1c-1.7-.74-3.07-1.8-4.09-3.18-1.02-1.39-1.61-3-1.75-4.85h6.49c.14,1.24,.64,2.27,1.49,3.09,.85,.82,1.98,1.23,3.4,1.23,1.27,0,2.24-.34,2.92-1.02,.68-.68,1.02-1.55,1.02-2.62,0-.95-.27-1.74-.82-2.36-.55-.62-1.24-1.12-2.08-1.49-.84-.37-1.99-.81-3.46-1.3-1.9-.64-3.46-1.26-4.67-1.88-1.21-.62-2.24-1.52-3.1-2.7-.85-1.18-1.28-2.73-1.28-4.63,0-2.62,.94-4.69,2.84-6.21,1.89-1.51,4.39-2.27,7.51-2.27s5.8,.78,7.73,2.34c1.92,1.56,3.01,3.64,3.27,6.23h-6.58c-.17-1.09-.64-2-1.39-2.7-.75-.71-1.77-1.06-3.07-1.06-1.12,0-2.03,.3-2.73,.89-.69,.59-1.04,1.45-1.04,2.58,0,.89,.27,1.64,.8,2.23,.53,.59,1.21,1.08,2.03,1.45,.82,.37,1.94,.79,3.35,1.26,1.96,.69,3.56,1.34,4.78,1.95,1.23,.61,2.27,1.51,3.14,2.73,.87,1.21,1.3,2.8,1.3,4.76,0,1.56-.39,2.99-1.17,4.31Zm33.71,4.05h-7.4l-11.3-13.98v13.98h-6.1v-30.55h6.1v13.72l11.34-13.72h7.36l-12.94,15.02,12.94,15.53Zm12.72,0h-6.1v-30.55h6.1v30.55Zm29.51,0l-2.12-6.14h-12.25l-2.16,6.14h-6.45l11.25-30.2h6.97l11.21,30.2h-6.45Zm28.91,0l-7.14-11.9h-2.68v11.9h-6.1v-30.55h11.64c3.55,0,6.25,.87,8.11,2.6,1.86,1.73,2.79,4.01,2.79,6.84,0,2.31-.64,4.24-1.93,5.8-1.28,1.56-3.14,2.6-5.56,3.12l7.62,12.2h-6.75Zm32.2-25.7h-12.12v7.92h10.82v4.67h-10.82v8.22h12.12v4.89h-18.22v-30.55h18.22v4.85Zm28.47,25.7l-2.12-6.14h-12.25l-2.16,6.14h-6.45l11.25-30.2h6.97l11.21,30.2h-6.45Zm29.34,0h-16.36v-30.55h6.1v25.88h10.26v4.67Zm172.37-11.47h-130.97c-1.61,0-2.92-1.81-2.92-4.04s1.31-4.04,2.92-4.04h130.97c1.61,0,2.92,1.81,2.92,4.04s-1.31,4.04-2.92,4.04Z" fill="#000000"/></g></g><g><path class="cls-1" d="M343.25,427.91H160.87c-1.61,0-2.92-1.31-2.92-2.92s1.31-2.92,2.92-2.92h182.37c1.61,0,2.92,1.31,2.92,2.92s-1.31,2.92-2.92,2.92Z" fill="#000000"/><path class="cls-1" d="M632.01,385.75h-195.74c-1.61,0-2.92-1.31-2.92-2.92s1.31-2.92,2.92-2.92h195.74c1.61,0,2.92,1.31,2.92,2.92s-1.31,2.92-2.92,2.92Z" fill="#000000"/><path class="cls-1" d="M618.67,427.91h-182.37c-1.61,0-2.92-1.31-2.92-2.92s1.31-2.92,2.92-2.92h182.37c1.61,0,2.92,1.31,2.92,2.92s-1.31,2.92-2.92,2.92Z" fill="#000000"/><path class="cls-1" d="M368.01,437.28c-1.12,0-2.24-.43-3.1-1.28-1.71-1.71-1.71-4.48,0-6.19l39.5-39.5s.09-.09,.14-.13c.06-.05,7.1-6.73,4.62-13.39-.84-2.27,.31-4.79,2.58-5.63,2.26-.85,4.79,.31,5.63,2.58,4.38,11.78-5.7,21.75-6.83,22.82l-39.45,39.45c-.86,.86-1.98,1.28-3.1,1.28Z" fill="#000000"/><path class="cls-1" d="M414.09,437.28c-1.12,0-2.24-.43-3.1-1.28l-39.45-39.45c-1.13-1.07-11.21-11.04-6.83-22.82,.84-2.27,3.37-3.43,5.63-2.58,2.27,.84,3.42,3.37,2.58,5.63-2.48,6.66,4.56,13.34,4.64,13.4,.04,.04,.09,.08,.12,.12l39.5,39.5c1.71,1.71,1.71,4.48,0,6.19-.86,.86-1.98,1.28-3.1,1.28Z" fill="#000000"/><path class="cls-1" d="M343.44,385.53H147.7c-1.61,0-2.92-1.31-2.92-2.92s1.31-2.92,2.92-2.92h195.74c1.61,0,2.92,1.31,2.92,2.92s-1.31,2.92-2.92,2.92Z" fill="#000000"/><g><path class="cls-1" d="M217.28,411c-.5,.82-1.24,1.48-2.21,1.97-.97,.49-2.15,.74-3.53,.74-2.08,0-3.8-.51-5.15-1.52-1.35-1.02-2.09-2.44-2.21-4.26h4.78c.07,.7,.32,1.25,.75,1.66,.43,.4,.98,.6,1.64,.6,.58,0,1.03-.16,1.37-.47,.33-.32,.5-.74,.5-1.26,0-.47-.15-.87-.46-1.18-.31-.32-.69-.57-1.14-.78-.46-.2-1.09-.44-1.89-.72-1.17-.4-2.13-.79-2.88-1.17-.74-.38-1.38-.94-1.92-1.68-.53-.74-.8-1.71-.8-2.9,0-1.1,.28-2.06,.84-2.86s1.34-1.42,2.33-1.85c.99-.43,2.12-.64,3.4-.64,2.07,0,3.71,.49,4.93,1.47s1.91,2.33,2.06,4.05h-4.86c-.09-.61-.31-1.1-.67-1.46-.36-.36-.85-.54-1.46-.54-.52,0-.95,.14-1.27,.42-.32,.28-.49,.69-.49,1.23,0,.44,.15,.81,.43,1.12,.29,.31,.65,.56,1.09,.75,.44,.19,1.07,.44,1.89,.74,1.19,.4,2.16,.8,2.92,1.19,.75,.39,1.4,.97,1.94,1.72,.54,.75,.81,1.73,.81,2.94,0,.98-.25,1.88-.75,2.71Z" fill="#000000"/><path class="cls-1" d="M230.27,394.94v18.58h-4.49v-18.58h4.49Z" fill="#000000"/><path class="cls-1" d="M255.14,413.52h-4.49l-7.52-11.41v11.41h-4.49v-18.58h4.49l7.52,11.51v-11.51h4.49v18.58Z" fill="#000000"/><path class="cls-1" d="M277.86,396.62c1.55,1.24,2.55,2.93,3.01,5.05h-4.76c-.35-.86-.89-1.53-1.62-2.02s-1.59-.74-2.59-.74c-1.31,0-2.37,.48-3.18,1.45-.81,.96-1.21,2.25-1.21,3.86s.4,2.9,1.21,3.85c.81,.96,1.87,1.43,3.18,1.43,1,0,1.86-.25,2.59-.74,.73-.49,1.27-1.16,1.62-2h4.76c-.46,2.1-1.46,3.78-3.01,5.03-1.55,1.25-3.51,1.88-5.87,1.88-1.81,0-3.39-.4-4.76-1.2-1.37-.8-2.42-1.91-3.17-3.35-.75-1.44-1.12-3.08-1.12-4.92s.37-3.48,1.12-4.92c.74-1.44,1.8-2.55,3.17-3.35,1.37-.8,2.95-1.19,4.76-1.19,2.37,0,4.32,.62,5.87,1.87Z" fill="#000000"/><path class="cls-1" d="M293.14,398.51v3.89h6.28v3.39h-6.28v4.13h7.07v3.6h-11.57v-18.58h11.57v3.57h-7.07Z" fill="#000000"/></g><g><path class="cls-1" d="M496.19,400.48c0-1.44-.62-2.15-1.87-2.15-.7,0-1.21,.25-1.54,.74-.32,.49-.5,1.25-.54,2.29h-4.39c.11-2.26,.79-3.96,2.05-5.1,1.26-1.14,2.86-1.71,4.78-1.71s3.54,.51,4.56,1.52c1.03,1.02,1.54,2.34,1.54,3.97,0,1.81-.69,3.57-2.08,5.3-1.38,1.73-3.04,3.18-4.97,4.38h7.33v3.63h-13.25v-3.37c5.57-3.98,8.36-7.14,8.36-9.49Z" fill="#000000"/><path class="cls-1" d="M509.49,404.06c0-2.89,.59-5.18,1.76-6.87,1.17-1.69,3.05-2.54,5.63-2.54s4.43,.85,5.61,2.54c1.18,1.69,1.77,3.98,1.77,6.87s-.59,5.21-1.77,6.91c-1.18,1.7-3.05,2.55-5.61,2.55s-4.45-.85-5.63-2.55c-1.17-1.7-1.76-4-1.76-6.91Zm10.3,0c0-1.66-.2-2.94-.59-3.82-.39-.88-1.17-1.33-2.33-1.33s-1.96,.45-2.37,1.34c-.4,.89-.6,2.16-.6,3.81s.2,2.95,.6,3.85c.4,.9,1.19,1.35,2.37,1.35s1.93-.45,2.33-1.35c.39-.9,.59-2.18,.59-3.85Z" fill="#000000"/><path class="cls-1" d="M541.13,400.48c0-1.44-.62-2.15-1.87-2.15-.7,0-1.21,.25-1.54,.74s-.5,1.25-.54,2.29h-4.39c.11-2.26,.79-3.96,2.05-5.1s2.86-1.71,4.78-1.71,3.54,.51,4.56,1.52c1.03,1.02,1.54,2.34,1.54,3.97,0,1.81-.69,3.57-2.08,5.3-1.38,1.73-3.04,3.18-4.97,4.38h7.33v3.63h-13.25v-3.37c5.57-3.98,8.36-7.14,8.36-9.49Z" fill="#000000"/><path class="cls-1" d="M562.58,400.48c0-1.44-.62-2.15-1.87-2.15-.7,0-1.21,.25-1.54,.74-.32,.49-.5,1.25-.54,2.29h-4.39c.11-2.26,.79-3.96,2.05-5.1,1.26-1.14,2.86-1.71,4.78-1.71s3.54,.51,4.56,1.52c1.03,1.02,1.54,2.34,1.54,3.97,0,1.81-.69,3.57-2.08,5.3-1.38,1.73-3.04,3.18-4.97,4.38h7.33v3.63h-13.25v-3.37c5.57-3.98,8.36-7.14,8.36-9.49Z" fill="#000000"/></g></g></svg>