<?xml version="1.0" encoding="UTF-8" standalone="no" ?>
<!DOCTYPE svg PUBLIC "-//W3C//DTD SVG 1.1//EN" "http://www.w3.org/Graphics/SVG/1.1/DTD/svg11.dtd">
<svg xmlns="http://www.w3.org/2000/svg" xmlns:xlink="http://www.w3.org/1999/xlink" version="1.1" width="1080" height="1080" viewBox="0 0 1080 1080" xml:space="preserve">
<desc>Created with Fabric.js 5.2.4</desc>
<defs>
</defs>
<g transform="matrix(1 0 0 1 540 540)" id="770133a0-e65a-4663-b2f6-aea76c0de7ef"  >
<rect style="stroke: none; stroke-width: 1; stroke-dasharray: none; stroke-linecap: butt; stroke-dashoffset: 0; stroke-linejoin: miter; stroke-miterlimit: 4; fill: rgb(255,255,255); fill-rule: nonzero; opacity: 1; visibility: hidden;" vector-effect="non-scaling-stroke"  x="-540" y="-540" rx="0" ry="0" width="1080" height="1080" />
</g>
<g transform="matrix(1 0 0 1 540 540)" id="41a7d59b-4db4-446a-b94a-55b5eef06604"  >
</g>
<g transform="matrix(46.72 0 0 46.72 540 540)" id="393021c3-5746-40da-824e-ce892721a070"  >
<path style="stroke: rgb(198,166,113); stroke-width: 0; stroke-dasharray: none; stroke-linecap: butt; stroke-dashoffset: 0; stroke-linejoin: miter; stroke-miterlimit: 4; fill: rgb(198,166,113); fill-rule: nonzero; opacity: 1;" vector-effect="non-scaling-stroke"  transform=" translate(-12, -12)" d="M 20 4 C 21.6569 4 23 5.34315 23 7 L 23 17 C 23 18.6569 21.6569 20 20 20 L 4 20 C 2.34315 20 1 18.6569 1 17 L 1 7 C 1 5.34315 2.34315 4 4 4 L 20 4 Z M 19.2529 6 L 4.74718 6 L 11.3804 11.2367 C 11.7437 11.5236 12.2563 11.5236 12.6197 11.2367 L 19.2529 6 Z M 3 7.1688 L 3 17 C 3 17.5523 3.44772 18 4 18 L 20 18 C 20.5523 18 21 17.5523 21 17 L 21 7.16882 L 13.8589 12.8065 C 12.769 13.667 11.231 13.667 10.1411 12.8065 L 3 7.1688 Z" stroke-linecap="round" />
</g>
<g transform="matrix(NaN NaN NaN NaN 0 0)"  >
<g style=""   >
</g>
</g>
<g transform="matrix(NaN NaN NaN NaN 0 0)"  >
<g style=""   >
</g>
</g>
<g transform="matrix(NaN NaN NaN NaN 0 0)"  >
<g style=""   >
</g>
</g>
<g transform="matrix(NaN NaN NaN NaN 0 0)"  >
<g style=""   >
</g>
</g>
</svg>