<?xml version="1.0" encoding="UTF-8" standalone="no" ?>
<!DOCTYPE svg PUBLIC "-//W3C//DTD SVG 1.1//EN" "http://www.w3.org/Graphics/SVG/1.1/DTD/svg11.dtd">
<svg xmlns="http://www.w3.org/2000/svg" xmlns:xlink="http://www.w3.org/1999/xlink" version="1.1" width="1080" height="1080" viewBox="0 0 1080 1080" xml:space="preserve">
<desc>Created with Fabric.js 5.2.4</desc>
<defs>
</defs>
<rect x="0" y="0" width="100%" height="100%" fill="transparent"></rect>
<g transform="matrix(1 0 0 1 540 540)" id="770133a0-e65a-4663-b2f6-aea76c0de7ef"  >
<rect style="stroke: none; stroke-width: 1; stroke-dasharray: none; stroke-linecap: butt; stroke-dashoffset: 0; stroke-linejoin: miter; stroke-miterlimit: 4; fill: rgb(255,255,255); fill-rule: nonzero; opacity: 1; visibility: hidden;" vector-effect="non-scaling-stroke"  x="-540" y="-540" rx="0" ry="0" width="1080" height="1080" />
</g>
<g transform="matrix(1 0 0 1 540 540)" id="41a7d59b-4db4-446a-b94a-55b5eef06604"  >
</g>
<g transform="matrix(NaN NaN NaN NaN 0 0)"  >
<g style=""   >
</g>
</g>
<g transform="matrix(NaN NaN NaN NaN 0 0)"  >
<g style=""   >
</g>
</g>
<g transform="matrix(NaN NaN NaN NaN 0 0)"  >
<g style=""   >
</g>
</g>
<g transform="matrix(NaN NaN NaN NaN 0 0)"  >
<g style=""   >
</g>
</g>
<g transform="matrix(52.77 0 0 52.77 540 540)" id="b58706a8-5963-4eee-ae17-ea3c5e13a69d"  >
<path style="stroke: rgb(0,0,0); stroke-width: 0; stroke-dasharray: none; stroke-linecap: butt; stroke-dashoffset: 0; stroke-linejoin: miter; stroke-miterlimit: 4; fill: rgb(198,166,113); fill-rule: nonzero; opacity: 1;" vector-effect="non-scaling-stroke"  transform=" translate(-13, -10.5)" d="M 16.1007 13.359 L 15.5719 12.8272 L 15.5719 12.8272 L 16.1007 13.359 Z M 16.5562 12.9062 L 17.085 13.438 L 17.085 13.438 L 16.5562 12.9062 Z M 18.9728 12.5894 L 18.6146 13.2483 L 18.9728 12.5894 Z M 20.8833 13.628 L 20.5251 14.2869 L 20.8833 13.628 Z M 21.4217 16.883 L 21.9505 17.4148 L 21.4217 16.883 Z M 20.0011 18.2954 L 19.4723 17.7636 L 20.0011 18.2954 Z M 18.6763 18.9651 L 18.7459 19.7119 L 18.7459 19.7119 L 18.6763 18.9651 Z M 8.81536 14.7266 L 9.34418 14.1947 L 8.81536 14.7266 Z M 4.00289 5.74561 L 3.2541 5.78816 L 3.2541 5.78816 L 4.00289 5.74561 Z M 10.4775 7.19738 L 11.0063 7.72922 L 11.0063 7.72922 L 10.4775 7.19738 Z M 10.6342 4.54348 L 11.2346 4.09401 L 10.6342 4.54348 Z M 9.37326 2.85908 L 8.77286 3.30855 L 8.77286 3.30855 L 9.37326 2.85908 Z M 6.26145 2.57483 L 6.79027 3.10667 L 6.79027 3.10667 L 6.26145 2.57483 Z M 4.69185 4.13552 L 4.16303 3.60368 L 4.16303 3.60368 L 4.69185 4.13552 Z M 12.0631 11.4972 L 12.5919 10.9654 L 12.0631 11.4972 Z M 16.6295 13.8909 L 17.085 13.438 L 16.0273 12.3743 L 15.5719 12.8272 L 16.6295 13.8909 Z M 18.6146 13.2483 L 20.5251 14.2869 L 21.2415 12.9691 L 19.331 11.9305 L 18.6146 13.2483 Z M 20.8929 16.3511 L 19.4723 17.7636 L 20.5299 18.8273 L 21.9505 17.4148 L 20.8929 16.3511 Z M 18.6067 18.2184 C 17.1568 18.3535 13.4056 18.2331 9.34418 14.1947 L 8.28654 15.2584 C 12.7186 19.6653 16.9369 19.8805 18.7459 19.7119 L 18.6067 18.2184 Z M 9.34418 14.1947 C 5.4728 10.3453 4.83151 7.10765 4.75168 5.70305 L 3.2541 5.78816 C 3.35456 7.55599 4.14863 11.144 8.28654 15.2584 L 9.34418 14.1947 Z M 10.7195 8.01441 L 11.0063 7.72922 L 9.9487 6.66555 L 9.66189 6.95073 L 10.7195 8.01441 Z M 11.2346 4.09401 L 9.97365 2.40961 L 8.77286 3.30855 L 10.0338 4.99296 L 11.2346 4.09401 Z M 5.73263 2.04299 L 4.16303 3.60368 L 5.22067 4.66736 L 6.79027 3.10667 L 5.73263 2.04299 Z M 10.1907 7.48257 C 9.66189 6.95073 9.66117 6.95144 9.66045 6.95216 C 9.66021 6.9524 9.65949 6.95313 9.659 6.95362 C 9.65802 6.95461 9.65702 6.95561 9.65601 6.95664 C 9.65398 6.95871 9.65188 6.96086 9.64972 6.9631 C 9.64539 6.96759 9.64081 6.97245 9.63599 6.97769 C 9.62634 6.98816 9.61575 7.00014 9.60441 7.01367 C 9.58174 7.04072 9.55605 7.07403 9.52905 7.11388 C 9.47492 7.19377 9.41594 7.2994 9.36589 7.43224 C 9.26376 7.70329 9.20901 8.0606 9.27765 8.50305 C 9.41189 9.36833 10.0078 10.5113 11.5343 12.0291 L 12.5919 10.9654 C 11.1634 9.54499 10.8231 8.68059 10.7599 8.27309 C 10.7298 8.07916 10.761 7.98371 10.7696 7.96111 C 10.7748 7.94713 10.7773 7.9457 10.7709 7.95525 C 10.7677 7.95992 10.7624 7.96723 10.7541 7.97708 C 10.75 7.98201 10.7451 7.98759 10.7394 7.99381 C 10.7365 7.99692 10.7335 8.00019 10.7301 8.00362 C 10.7285 8.00534 10.7268 8.00709 10.725 8.00889 C 10.7241 8.00979 10.7232 8.0107 10.7223 8.01162 C 10.7219 8.01208 10.7212 8.01278 10.7209 8.01301 C 10.7202 8.01371 10.7195 8.01441 10.1907 7.48257 Z M 11.5343 12.0291 C 13.0613 13.5474 14.2096 14.1383 15.0763 14.2713 C 15.5192 14.3392 15.8763 14.285 16.1472 14.1841 C 16.28 14.1346 16.3858 14.0763 16.4658 14.0227 C 16.5058 13.9959 16.5392 13.9704 16.5663 13.9479 C 16.5799 13.9367 16.5919 13.9262 16.6024 13.9166 C 16.6077 13.9118 16.6126 13.9073 16.6171 13.903 C 16.6194 13.9008 16.6215 13.8987 16.6236 13.8967 C 16.6246 13.8957 16.6256 13.8947 16.6266 13.8937 C 16.6271 13.8932 16.6279 13.8925 16.6281 13.8923 C 16.6288 13.8916 16.6295 13.8909 16.1007 13.359 C 15.5719 12.8272 15.5726 12.8265 15.5733 12.8258 C 15.5735 12.8256 15.5742 12.8249 15.5747 12.8244 C 15.5756 12.8235 15.5765 12.8226 15.5774 12.8217 C 15.5793 12.82 15.581 12.8183 15.5827 12.8166 C 15.5862 12.8133 15.5895 12.8103 15.5926 12.8074 C 15.5988 12.8018 15.6044 12.7969 15.6094 12.7929 C 15.6192 12.7847 15.6265 12.7795 15.631 12.7764 C 15.6403 12.7702 15.6384 12.773 15.6236 12.7785 C 15.5991 12.7876 15.501 12.8189 15.3038 12.7886 C 14.8905 12.7253 14.02 12.3853 12.5919 10.9654 L 11.5343 12.0291 Z M 9.97365 2.40961 C 8.95434 1.04802 6.94996 0.83257 5.73263 2.04299 L 6.79027 3.10667 C 7.32195 2.578 8.26623 2.63181 8.77286 3.30855 L 9.97365 2.40961 Z M 4.75168 5.70305 C 4.73201 5.35694 4.89075 4.9954 5.22067 4.66736 L 4.16303 3.60368 C 3.62571 4.13795 3.20329 4.89425 3.2541 5.78816 L 4.75168 5.70305 Z M 19.4723 17.7636 C 19.1975 18.0369 18.9029 18.1908 18.6067 18.2184 L 18.7459 19.7119 C 19.4805 19.6434 20.0824 19.2723 20.5299 18.8273 L 19.4723 17.7636 Z M 11.0063 7.72922 C 11.9908 6.7503 12.064 5.2019 11.2346 4.09401 L 10.0338 4.99295 C 10.4373 5.53193 10.3773 6.23938 9.9487 6.66555 L 11.0063 7.72922 Z M 20.5251 14.2869 C 21.3429 14.7315 21.4703 15.7769 20.8929 16.3511 L 21.9505 17.4148 C 23.2908 16.0821 22.8775 13.8584 21.2415 12.9691 L 20.5251 14.2869 Z M 17.085 13.438 C 17.469 13.0562 18.0871 12.9616 18.6146 13.2483 L 19.331 11.9305 C 18.2474 11.3414 16.9026 11.5041 16.0273 12.3743 L 17.085 13.438 Z" stroke-linecap="round" />
</g>
<g transform="matrix(NaN NaN NaN NaN 0 0)"  >
<g style=""   >
</g>
</g>
<g transform="matrix(NaN NaN NaN NaN 0 0)"  >
<g style=""   >
</g>
</g>
</svg>